<svg width="143" height="680" viewBox="0 0 143 680" fill="none" xmlns="http://www.w3.org/2000/svg">
<path fill-rule="evenodd" clip-rule="evenodd" d="M94.9328 662.73C72.439 678.602 47.8366 687.236 12.4262 671.933C-22.9843 656.626 -19.2334 636.763 3.26042 620.891C25.7543 605.02 95.0345 612.733 130.445 628.036C165.855 643.34 117.427 646.855 94.9328 662.73Z" fill="#FFD96D"/>
<path fill-rule="evenodd" clip-rule="evenodd" d="M48.7756 540.919C9.01066 569.86 -17.2081 627.926 -85.9481 599.508C-136.938 578.429 -139.64 518.593 -98.4364 483.041C-57.2364 447.49 25.1773 426.084 83.4243 453.372C124.146 470.209 86.1002 513.762 48.7756 540.919Z" fill="#79CFCD"/>
<path fill-rule="evenodd" clip-rule="evenodd" d="M39.7028 38.3224C43.5511 98.1751 98.6646 91.8515 81.8009 125.803C67.9018 153.786 -25.559 283.793 -66.4359 226.638C-86.9595 197.942 -72.1491 171.681 -75.4062 136.429C-79.2472 94.8604 -133.974 47.7916 -104.133 18.9092C-72.7763 -11.4404 36.888 -5.45968 39.7028 38.3224Z" fill="#FFD049"/>
</svg>
