<svg width="426" height="1002" viewBox="0 0 426 1002" fill="none" xmlns="http://www.w3.org/2000/svg">
<path fill-rule="evenodd" clip-rule="evenodd" d="M93.4971 759.5C150.808 830.437 34.0281 943.98 -88.3621 923.066C-143.635 913.622 -217.019 845.961 -196.289 784.884C-178.309 731.907 -81.9629 766.541 -43.4866 725.899C79.8471 595.642 58.8344 716.591 93.4971 759.5Z" fill="#79CFCD"/>
<path fill-rule="evenodd" clip-rule="evenodd" d="M181.196 968.667C160.698 998.678 138.278 1015 106.008 986.067C73.7384 957.125 77.1566 919.569 97.6552 889.559C118.154 859.548 181.289 874.132 213.559 903.068C245.828 932.005 201.696 938.65 181.196 968.667Z" fill="#FFD049"/>
<path fill-rule="evenodd" clip-rule="evenodd" d="M108.233 493.021C59.9746 563.738 -190.103 636.864 -272.854 562.676C-368.909 476.554 -84.541 282.402 -8.62544 256.336C67.2909 230.268 80.083 242.209 61.0811 326.188C42.078 410.168 156.493 422.304 108.233 493.021Z" fill="#F4486D"/>
<mask id="mask0" mask-type="alpha" maskUnits="userSpaceOnUse" x="-41" y="356" width="148" height="162">
<path d="M81.052 360.608C109.24 378.551 120.19 475.643 78.4928 509.15C30.0899 548.046 -33.4927 439.196 -38.5991 409.775C-43.7047 380.355 -37.0414 375.169 -0.0845969 381.447C36.8714 387.726 52.8641 342.665 81.052 360.608Z" fill="white"/>
</mask>
<g mask="url(#mask0)">
<path fill-rule="evenodd" clip-rule="evenodd" d="M103.595 481.03C102.568 480.159 102.881 478.102 103.818 476.998C104.754 475.894 106.347 475.706 107.374 476.577C108.401 477.449 109.127 479.606 108.191 480.709C107.253 481.813 104.622 481.902 103.595 481.03Z" fill="white"/>
<path fill-rule="evenodd" clip-rule="evenodd" d="M95.7751 490.244C94.7486 489.373 95.0617 487.315 95.9982 486.212C96.9355 485.107 98.5277 484.92 99.5542 485.791C100.582 486.663 101.308 488.818 100.371 489.923C99.4345 491.026 96.8024 491.116 95.7751 490.244Z" fill="white"/>
<path fill-rule="evenodd" clip-rule="evenodd" d="M72.3186 517.882C71.2921 517.011 71.6044 514.954 72.5417 513.85C73.4782 512.747 75.0712 512.558 76.0977 513.429C77.125 514.301 77.8509 516.458 76.9145 517.561C75.9772 518.666 73.3459 518.754 72.3186 517.882Z" fill="white"/>
<path fill-rule="evenodd" clip-rule="evenodd" d="M95.7239 474.35C94.6975 473.479 95.0097 471.422 95.947 470.318C96.8835 469.215 98.4766 469.026 99.503 469.897C100.53 470.769 101.256 472.926 100.32 474.029C99.3825 475.134 96.7512 475.222 95.7239 474.35Z" fill="white"/>
<path fill-rule="evenodd" clip-rule="evenodd" d="M87.9043 483.564C86.8778 482.693 87.1909 480.635 88.1274 479.532C89.0647 478.427 90.6569 478.24 91.6834 479.111C92.7107 479.983 93.4375 482.139 92.5002 483.243C91.5637 484.346 88.9316 484.436 87.9043 483.564Z" fill="white"/>
<path fill-rule="evenodd" clip-rule="evenodd" d="M80.0854 492.777C79.059 491.905 79.372 489.848 80.3085 488.745C81.2458 487.64 82.8381 487.453 83.8645 488.324C84.8918 489.196 85.6186 491.351 84.6813 492.456C83.7448 493.559 81.1127 493.648 80.0854 492.777Z" fill="white"/>
<path fill-rule="evenodd" clip-rule="evenodd" d="M72.2666 501.989C71.2401 501.118 71.5532 499.061 72.4897 497.957C73.427 496.853 75.0192 496.665 76.0457 497.536C77.073 498.408 77.7998 500.564 76.8625 501.668C75.926 502.772 73.2939 502.861 72.2666 501.989Z" fill="white"/>
<path fill-rule="evenodd" clip-rule="evenodd" d="M64.4477 511.202C63.4213 510.331 63.7336 508.274 64.6709 507.17C65.6073 506.067 67.2004 505.878 68.2268 506.749C69.2542 507.621 69.9801 509.778 69.0437 510.881C68.1064 511.986 65.4751 512.074 64.4477 511.202Z" fill="white"/>
<path fill-rule="evenodd" clip-rule="evenodd" d="M95.6711 458.457C94.6447 457.586 94.957 455.529 95.8943 454.425C96.8308 453.321 98.4238 453.133 99.4502 454.004C100.478 454.876 101.203 457.032 100.267 458.136C99.3297 459.24 96.6984 459.329 95.6711 458.457Z" fill="white"/>
<path fill-rule="evenodd" clip-rule="evenodd" d="M87.8523 467.669C86.8259 466.798 87.1381 464.742 88.0754 463.637C89.0119 462.534 90.605 462.345 91.6314 463.217C92.6587 464.088 93.3846 466.245 92.4482 467.349C91.5109 468.453 88.8796 468.541 87.8523 467.669Z" fill="white"/>
<path fill-rule="evenodd" clip-rule="evenodd" d="M80.0327 476.883C79.0062 476.012 79.3193 473.955 80.2558 472.851C81.1931 471.747 82.7853 471.559 83.8118 472.43C84.8391 473.302 85.5658 475.458 84.6285 476.562C83.692 477.666 81.06 477.755 80.0327 476.883Z" fill="white"/>
<path fill-rule="evenodd" clip-rule="evenodd" d="M72.2138 486.096C71.1874 485.225 71.5005 483.167 72.4369 482.064C73.3742 480.96 74.9665 480.772 75.9929 481.643C77.0202 482.515 77.747 484.671 76.8097 485.775C75.8732 486.879 73.2411 486.968 72.2138 486.096Z" fill="white"/>
<path fill-rule="evenodd" clip-rule="evenodd" d="M64.395 495.309C63.3685 494.438 63.6816 492.38 64.6181 491.277C65.5554 490.172 67.1476 489.985 68.1741 490.856C69.2014 491.728 69.9281 493.883 68.9908 494.988C68.0544 496.091 65.4223 496.181 64.395 495.309Z" fill="white"/>
<path fill-rule="evenodd" clip-rule="evenodd" d="M56.5761 504.522C55.5497 503.65 55.862 501.594 56.7993 500.49C57.7357 499.386 59.3288 499.198 60.3552 500.069C61.3825 500.941 62.1085 503.097 61.172 504.201C60.2347 505.305 57.6034 505.393 56.5761 504.522Z" fill="white"/>
<path fill-rule="evenodd" clip-rule="evenodd" d="M48.7573 513.734C47.7309 512.863 48.044 510.806 48.9805 509.702C49.9177 508.598 51.51 508.41 52.5364 509.281C53.5637 510.153 54.2905 512.309 53.3532 513.413C52.4167 514.517 49.7846 514.606 48.7573 513.734Z" fill="white"/>
<path fill-rule="evenodd" clip-rule="evenodd" d="M40.9385 522.947C39.912 522.076 40.2243 520.02 41.1616 518.915C42.0989 517.811 43.6911 517.623 44.7176 518.494C45.7449 519.366 46.4716 521.522 45.5343 522.626C44.597 523.731 41.9658 523.819 40.9385 522.947Z" fill="white"/>
<path fill-rule="evenodd" clip-rule="evenodd" d="M87.8003 451.777C86.7739 450.906 87.0862 448.849 88.0235 447.745C88.9599 446.641 90.553 446.453 91.5794 447.324C92.6067 448.196 93.3327 450.352 92.3962 451.456C91.4589 452.56 88.8276 452.649 87.8003 451.777Z" fill="white"/>
<path fill-rule="evenodd" clip-rule="evenodd" d="M79.9815 460.99C78.955 460.118 79.2673 458.062 80.2046 456.958C81.1411 455.854 82.7341 455.666 83.7606 456.537C84.7879 457.409 85.5138 459.565 84.5773 460.669C83.6401 461.773 81.0088 461.861 79.9815 460.99Z" fill="white"/>
<path fill-rule="evenodd" clip-rule="evenodd" d="M72.1618 470.203C71.1354 469.332 71.4485 467.275 72.385 466.171C73.3223 465.067 74.9145 464.879 75.9409 465.75C76.9682 466.622 77.695 468.778 76.7577 469.882C75.8212 470.986 73.1891 471.075 72.1618 470.203Z" fill="white"/>
<path fill-rule="evenodd" clip-rule="evenodd" d="M64.343 479.416C63.3166 478.545 63.6296 476.487 64.5661 475.384C65.5034 474.28 67.0957 474.092 68.1221 474.963C69.1494 475.835 69.8761 477.991 68.9389 479.095C68.0024 480.199 65.3703 480.288 64.343 479.416Z" fill="white"/>
<path fill-rule="evenodd" clip-rule="evenodd" d="M56.5241 488.629C55.4977 487.758 55.8108 485.7 56.7473 484.597C57.6846 483.492 59.2768 483.305 60.3033 484.176C61.3306 485.048 62.0573 487.204 61.12 488.308C60.1835 489.411 57.5515 489.501 56.5241 488.629Z" fill="white"/>
<path fill-rule="evenodd" clip-rule="evenodd" d="M48.7053 497.842C47.6789 496.97 47.9912 494.914 48.9285 493.81C49.8649 492.706 51.458 492.518 52.4844 493.389C53.5117 494.261 54.2377 496.417 53.3012 497.521C52.3639 498.625 49.7326 498.713 48.7053 497.842Z" fill="white"/>
<path fill-rule="evenodd" clip-rule="evenodd" d="M40.8865 507.054C39.8601 506.183 40.1732 504.126 41.1096 503.022C42.0469 501.918 43.6392 501.73 44.6656 502.602C45.6929 503.473 46.4197 505.629 45.4824 506.733C44.5459 507.837 41.9138 507.926 40.8865 507.054Z" fill="white"/>
<path fill-rule="evenodd" clip-rule="evenodd" d="M79.9296 445.097C78.9023 444.225 79.2155 442.169 80.1528 441.065C81.0893 439.961 82.6814 439.772 83.7087 440.644C84.7361 441.516 85.462 443.673 84.5255 444.776C83.5882 445.88 80.957 445.969 79.9296 445.097Z" fill="white"/>
<path fill-rule="evenodd" clip-rule="evenodd" d="M72.1108 454.31C71.0835 453.438 71.3966 451.382 72.3339 450.278C73.2704 449.174 74.8626 448.985 75.8899 449.857C76.9172 450.729 77.6431 452.885 76.7067 453.989C75.7694 455.093 73.1381 455.182 72.1108 454.31Z" fill="white"/>
<path fill-rule="evenodd" clip-rule="evenodd" d="M64.2912 463.523C63.2638 462.652 63.5778 460.595 64.5143 459.491C65.4516 458.387 67.043 458.199 68.0703 459.071C69.0976 459.942 69.8243 462.098 68.887 463.203C67.9506 464.306 65.3185 464.395 64.2912 463.523Z" fill="white"/>
<path fill-rule="evenodd" clip-rule="evenodd" d="M56.4713 472.735C55.444 471.863 55.7579 469.807 56.6944 468.703C57.6317 467.599 59.2231 467.411 60.2504 468.283C61.2777 469.154 62.0045 471.31 61.0672 472.415C60.1307 473.518 57.4986 473.607 56.4713 472.735Z" fill="white"/>
<path fill-rule="evenodd" clip-rule="evenodd" d="M48.6535 481.949C47.6262 481.077 47.9393 479.021 48.8766 477.917C49.8139 476.813 51.4053 476.624 52.4326 477.496C53.4599 478.368 54.1866 480.524 53.2493 481.628C52.3121 482.733 49.6808 482.821 48.6535 481.949Z" fill="white"/>
<path fill-rule="evenodd" clip-rule="evenodd" d="M40.8346 491.162C39.8073 490.29 40.1205 488.234 41.0578 487.13C41.9943 486.026 43.5864 485.837 44.6137 486.709C45.6411 487.581 46.367 489.737 45.4305 490.841C44.4932 491.945 41.862 492.034 40.8346 491.162Z" fill="white"/>
<path fill-rule="evenodd" clip-rule="evenodd" d="M33.0158 500.375C31.9885 499.503 32.3025 497.446 33.239 496.343C34.1762 495.238 35.7676 495.05 36.7949 495.922C37.8222 496.794 38.549 498.949 37.6117 500.054C36.6752 501.157 34.0431 501.246 33.0158 500.375Z" fill="white"/>
<path fill-rule="evenodd" clip-rule="evenodd" d="M72.0579 438.416C71.0306 437.544 71.3438 435.489 72.2811 434.384C73.2175 433.281 74.8097 433.092 75.837 433.963C76.8643 434.835 77.5903 436.992 76.6538 438.095C75.7165 439.2 73.0852 439.288 72.0579 438.416Z" fill="white"/>
<path fill-rule="evenodd" clip-rule="evenodd" d="M64.2391 447.629C63.2118 446.757 63.5249 444.701 64.4622 443.597C65.3987 442.494 66.9909 442.304 68.0182 443.176C69.0455 444.048 69.7714 446.205 68.8349 447.308C67.8977 448.413 65.2664 448.501 64.2391 447.629Z" fill="white"/>
<path fill-rule="evenodd" clip-rule="evenodd" d="M56.4185 456.842C55.3912 455.97 55.7052 453.913 56.6417 452.81C57.579 451.706 59.1703 451.517 60.1977 452.389C61.225 453.261 61.9517 455.417 61.0144 456.521C60.0779 457.625 57.4459 457.714 56.4185 456.842Z" fill="white"/>
<path fill-rule="evenodd" clip-rule="evenodd" d="M48.5997 466.055C47.5724 465.183 47.8864 463.126 48.8228 462.023C49.7601 460.918 51.3515 460.73 52.3788 461.602C53.4061 462.474 54.1329 464.63 53.1956 465.734C52.2591 466.837 49.627 466.927 48.5997 466.055Z" fill="white"/>
<path fill-rule="evenodd" clip-rule="evenodd" d="M40.7817 475.268C39.7544 474.396 40.0684 472.34 41.0049 471.236C41.9422 470.132 43.5335 469.944 44.5609 470.815C45.5882 471.687 46.3149 473.843 45.3776 474.947C44.4411 476.051 41.8091 476.14 40.7817 475.268Z" fill="white"/>
<path fill-rule="evenodd" clip-rule="evenodd" d="M32.962 484.48C31.9347 483.608 32.2479 481.553 33.1852 480.448C34.1216 479.345 35.7138 479.156 36.7411 480.028C37.7684 480.899 38.4944 483.056 37.5579 484.159C36.6206 485.264 33.9893 485.352 32.962 484.48Z" fill="white"/>
<path fill-rule="evenodd" clip-rule="evenodd" d="M25.1432 493.693C24.1159 492.821 24.4299 490.765 25.3663 489.661C26.3036 488.557 27.895 488.368 28.9223 489.24C29.9496 490.112 30.6764 492.268 29.7391 493.372C28.8026 494.476 26.1705 494.565 25.1432 493.693Z" fill="white"/>
<path fill-rule="evenodd" clip-rule="evenodd" d="M64.1871 431.736C63.1598 430.864 63.473 428.809 64.4103 427.704C65.3467 426.601 66.9389 426.412 67.9662 427.283C68.9927 428.155 69.7195 430.312 68.783 431.416C67.8458 432.52 65.2136 432.607 64.1871 431.736Z" fill="white"/>
<path fill-rule="evenodd" clip-rule="evenodd" d="M56.3683 440.949C55.341 440.077 55.6541 438.022 56.5914 436.917C57.5279 435.814 59.1201 435.624 60.1474 436.496C61.1738 437.367 61.9007 439.525 60.9642 440.628C60.0269 441.733 57.3947 441.82 56.3683 440.949Z" fill="white"/>
<path fill-rule="evenodd" clip-rule="evenodd" d="M48.5487 450.163C47.5213 449.291 47.8353 447.234 48.7718 446.131C49.7091 445.026 51.3004 444.838 52.3278 445.71C53.3542 446.581 54.0819 448.738 53.1446 449.842C52.2081 450.945 49.5751 451.034 48.5487 450.163Z" fill="white"/>
<path fill-rule="evenodd" clip-rule="evenodd" d="M40.7298 459.376C39.7025 458.504 40.0164 456.447 40.9529 455.344C41.8902 454.239 43.4816 454.051 44.5089 454.923C45.5354 455.794 46.263 457.95 45.3257 459.055C44.3892 460.158 41.7562 460.247 40.7298 459.376Z" fill="white"/>
<path fill-rule="evenodd" clip-rule="evenodd" d="M32.911 468.588C31.8836 467.717 32.1968 465.661 33.1341 464.556C34.0714 463.452 35.6627 463.264 36.6901 464.136C37.7165 465.007 38.4442 467.163 37.5069 468.268C36.5696 469.372 33.9374 469.46 32.911 468.588Z" fill="white"/>
<path fill-rule="evenodd" clip-rule="evenodd" d="M25.0921 477.801C24.0648 476.929 24.378 474.874 25.3152 473.769C26.2517 472.666 27.8439 472.476 28.8712 473.348C29.8977 474.22 30.6245 476.377 29.688 477.48C28.7508 478.585 26.1186 478.672 25.0921 477.801Z" fill="white"/>
<path fill-rule="evenodd" clip-rule="evenodd" d="M17.2733 487.014C16.246 486.142 16.5599 484.085 17.4964 482.982C18.4337 481.878 20.0251 481.689 21.0524 482.561C22.0789 483.432 22.8065 485.589 21.8692 486.693C20.9327 487.797 18.2997 487.885 17.2733 487.014Z" fill="white"/>
<path fill-rule="evenodd" clip-rule="evenodd" d="M56.3155 425.056C55.2882 424.184 55.6013 422.128 56.5386 421.024C57.4751 419.92 59.0673 419.731 60.0946 420.603C61.121 421.474 61.8478 423.631 60.9113 424.735C59.974 425.839 57.3419 425.927 56.3155 425.056Z" fill="white"/>
<path fill-rule="evenodd" clip-rule="evenodd" d="M48.4958 434.269C47.4685 433.398 47.7825 431.341 48.719 430.237C49.6562 429.133 51.2476 428.945 52.2749 429.817C53.3013 430.688 54.029 432.844 53.0917 433.949C52.1552 435.052 49.5222 435.141 48.4958 434.269Z" fill="white"/>
<path fill-rule="evenodd" clip-rule="evenodd" d="M40.677 443.482C39.6497 442.61 39.9636 440.554 40.9001 439.45C41.8374 438.346 43.4288 438.158 44.4561 439.029C45.4825 439.901 46.2101 442.057 45.2729 443.161C44.3364 444.265 41.7034 444.353 40.677 443.482Z" fill="white"/>
<path fill-rule="evenodd" clip-rule="evenodd" d="M32.8581 452.695C31.8308 451.823 32.1448 449.766 33.0813 448.663C34.0186 447.559 35.6099 447.37 36.6372 448.242C37.6637 449.113 38.3913 451.27 37.454 452.374C36.5175 453.478 33.8846 453.566 32.8581 452.695Z" fill="white"/>
<path fill-rule="evenodd" clip-rule="evenodd" d="M25.0393 461.908C24.012 461.036 24.3251 458.98 25.2624 457.876C26.1997 456.771 27.7911 456.583 28.8184 457.455C29.8448 458.326 30.5725 460.483 29.6352 461.587C28.6979 462.691 26.0657 462.779 25.0393 461.908Z" fill="white"/>
<path fill-rule="evenodd" clip-rule="evenodd" d="M17.2205 471.121C16.1931 470.249 16.5063 468.193 17.4436 467.089C18.3801 465.985 19.9723 465.796 20.9996 466.668C22.026 467.539 22.7528 469.696 21.8163 470.8C20.879 471.904 18.2469 471.992 17.2205 471.121Z" fill="white"/>
<path fill-rule="evenodd" clip-rule="evenodd" d="M9.40163 480.333C8.37432 479.461 8.6883 477.405 9.62478 476.301C10.5621 475.197 12.1534 475.009 13.1807 475.881C14.2072 476.752 14.9348 478.908 13.9975 480.012C13.061 481.116 10.4281 481.204 9.40163 480.333Z" fill="white"/>
<path fill-rule="evenodd" clip-rule="evenodd" d="M48.4447 418.376C47.4174 417.504 47.7306 415.448 48.6679 414.344C49.6044 413.24 51.1965 413.051 52.2238 413.923C53.2503 414.794 53.9771 416.952 53.0406 418.055C52.1033 419.159 49.4711 419.247 48.4447 418.376Z" fill="white"/>
<path fill-rule="evenodd" clip-rule="evenodd" d="M40.6251 427.59C39.5978 426.718 39.9118 424.661 40.8482 423.558C41.7855 422.453 43.3769 422.265 44.4042 423.137C45.4306 424.008 46.1582 426.164 45.2209 427.269C44.2845 428.372 41.6515 428.461 40.6251 427.59Z" fill="white"/>
<path fill-rule="evenodd" clip-rule="evenodd" d="M32.8063 436.802C31.7789 435.931 32.0929 433.874 33.0294 432.77C33.9667 431.666 35.5581 431.478 36.5854 432.35C37.6118 433.221 38.3394 435.377 37.4021 436.481C36.4656 437.585 33.8327 437.673 32.8063 436.802Z" fill="white"/>
<path fill-rule="evenodd" clip-rule="evenodd" d="M24.9874 446.015C23.9601 445.143 24.2741 443.087 25.2106 441.983C26.1478 440.879 27.7392 440.69 28.7665 441.562C29.7929 442.433 30.5205 444.59 29.5833 445.694C28.6468 446.798 26.0138 446.886 24.9874 446.015Z" fill="white"/>
<path fill-rule="evenodd" clip-rule="evenodd" d="M17.1686 455.228C16.1413 454.356 16.4544 452.3 17.3917 451.196C18.329 450.092 19.9204 449.903 20.9477 450.775C21.9741 451.646 22.7017 453.803 21.7644 454.907C20.8271 456.011 18.195 456.099 17.1686 455.228Z" fill="white"/>
<path fill-rule="evenodd" clip-rule="evenodd" d="M9.34973 464.441C8.32242 463.569 8.63559 461.513 9.57288 460.409C10.5094 459.305 12.1015 459.116 13.1288 459.988C14.1553 460.859 14.8821 463.016 13.9456 464.12C13.0083 465.224 10.3761 465.312 9.34973 464.441Z" fill="white"/>
<path fill-rule="evenodd" clip-rule="evenodd" d="M1.5309 473.654C0.503598 472.782 0.817577 470.725 1.75406 469.622C2.69135 468.517 4.28271 468.329 5.31001 469.201C6.33643 470.072 7.06404 472.228 6.12675 473.333C5.19027 474.436 2.55732 474.525 1.5309 473.654Z" fill="white"/>
<path fill-rule="evenodd" clip-rule="evenodd" d="M-6.28795 482.866C-7.31526 481.994 -7.00208 479.939 -6.06479 478.834C-5.1275 477.73 -3.53614 477.542 -2.50883 478.413C-1.48242 479.285 -0.754805 481.441 -1.6921 482.545C-2.62939 483.65 -5.26154 483.737 -6.28795 482.866Z" fill="white"/>
<path fill-rule="evenodd" clip-rule="evenodd" d="M40.573 411.695C39.5457 410.823 39.8588 408.768 40.7961 407.663C41.7326 406.56 43.3248 406.37 44.3521 407.242C45.3786 408.113 46.1054 410.271 45.1689 411.374C44.2316 412.479 41.5995 412.566 40.573 411.695Z" fill="white"/>
<path fill-rule="evenodd" clip-rule="evenodd" d="M32.7534 420.909C31.7261 420.037 32.04 417.98 32.9765 416.877C33.9138 415.773 35.5052 415.584 36.5325 416.456C37.5589 417.327 38.2866 419.484 37.3493 420.588C36.4128 421.692 33.7798 421.78 32.7534 420.909Z" fill="white"/>
<path fill-rule="evenodd" clip-rule="evenodd" d="M24.9345 430.122C23.9072 429.25 24.2212 427.193 25.1577 426.09C26.0949 424.985 27.6863 424.797 28.7137 425.669C29.7401 426.54 30.4677 428.696 29.5305 429.801C28.594 430.904 25.961 430.993 24.9345 430.122Z" fill="white"/>
<path fill-rule="evenodd" clip-rule="evenodd" d="M17.1157 439.335C16.0884 438.463 16.4023 436.406 17.3388 435.302C18.2761 434.198 19.8675 434.01 20.8948 434.882C21.9212 435.753 22.6489 437.909 21.7116 439.014C20.7751 440.117 18.1421 440.206 17.1157 439.335Z" fill="white"/>
<path fill-rule="evenodd" clip-rule="evenodd" d="M9.29685 448.547C8.26953 447.675 8.58268 445.62 9.51997 444.515C10.4573 443.411 12.0486 443.223 13.076 444.094C14.1024 444.966 14.8301 447.122 13.8928 448.226C12.9555 449.331 10.3233 449.418 9.29685 448.547Z" fill="white"/>
<path fill-rule="evenodd" clip-rule="evenodd" d="M1.47803 457.76C0.450698 456.888 0.763847 454.832 1.70114 453.728C2.63761 452.625 4.2298 452.435 5.25713 453.307C6.28357 454.178 7.01041 456.336 6.07393 457.439C5.13665 458.544 2.50447 458.631 1.47803 457.76Z" fill="white"/>
<path fill-rule="evenodd" clip-rule="evenodd" d="M32.7023 405.015C31.675 404.143 31.9881 402.088 32.9254 400.983C33.8619 399.88 35.4541 399.691 36.4814 400.562C37.5078 401.434 38.2346 403.591 37.2981 404.694C36.3608 405.799 33.7287 405.886 32.7023 405.015Z" fill="white"/>
<path fill-rule="evenodd" clip-rule="evenodd" d="M24.8826 414.229C23.8553 413.357 24.1693 411.301 25.1058 410.197C26.0431 409.093 27.6344 408.904 28.6617 409.776C29.6881 410.647 30.4157 412.804 29.4784 413.908C28.542 415.012 25.909 415.1 24.8826 414.229Z" fill="white"/>
<path fill-rule="evenodd" clip-rule="evenodd" d="M17.0638 423.442C16.0365 422.57 16.3505 420.513 17.2869 419.41C18.2242 418.305 19.8156 418.117 20.8429 418.989C21.8693 419.86 22.5969 422.017 21.6596 423.121C20.7231 424.224 18.0902 424.313 17.0638 423.442Z" fill="white"/>
<path fill-rule="evenodd" clip-rule="evenodd" d="M9.24492 432.655C8.21762 431.783 8.53161 429.726 9.46809 428.623C10.4054 427.518 11.9967 427.33 13.024 428.202C14.0504 429.073 14.778 431.229 13.8408 432.334C12.9043 433.437 10.2713 433.526 9.24492 432.655Z" fill="white"/>
<path fill-rule="evenodd" clip-rule="evenodd" d="M1.42608 441.867C0.39878 440.996 0.711965 438.94 1.64925 437.835C2.58654 436.731 4.17789 436.543 5.20518 437.415C6.23159 438.286 6.9592 440.442 6.02191 441.547C5.08463 442.651 2.45248 442.739 1.42608 441.867Z" fill="white"/>
<path fill-rule="evenodd" clip-rule="evenodd" d="M24.8306 398.335C23.8033 397.463 24.1164 395.407 25.0537 394.303C25.9902 393.199 27.5824 393.01 28.6097 393.882C29.6362 394.753 30.363 396.91 29.4265 398.014C28.4893 399.118 25.8571 399.206 24.8306 398.335Z" fill="white"/>
<path fill-rule="evenodd" clip-rule="evenodd" d="M17.011 407.548C15.9836 406.677 16.2976 404.62 17.2341 403.516C18.1714 402.412 19.7627 402.224 20.7901 403.096C21.8165 403.967 22.5442 406.123 21.6069 407.228C20.6704 408.331 18.0374 408.42 17.011 407.548Z" fill="white"/>
<path fill-rule="evenodd" clip-rule="evenodd" d="M9.19214 416.761C8.1648 415.889 8.47875 413.833 9.41523 412.729C10.3525 411.625 11.9439 411.436 12.9712 412.308C13.9977 413.18 14.7254 415.336 13.7881 416.44C12.8516 417.544 10.2186 417.632 9.19214 416.761Z" fill="white"/>
<path fill-rule="evenodd" clip-rule="evenodd" d="M1.37329 425.974C0.345947 425.102 0.659904 423.045 1.59638 421.942C2.53367 420.838 4.12505 420.649 5.15239 421.521C6.17884 422.392 6.90651 424.549 5.96922 425.653C5.03274 426.757 2.39973 426.845 1.37329 425.974Z" fill="white"/>
<path fill-rule="evenodd" clip-rule="evenodd" d="M16.9598 391.655C15.9325 390.783 16.2457 388.727 17.183 387.623C18.1194 386.519 19.7116 386.33 20.7389 387.202C21.7654 388.073 22.4922 390.23 21.5557 391.334C20.6184 392.438 17.9862 392.526 16.9598 391.655Z" fill="white"/>
<path fill-rule="evenodd" clip-rule="evenodd" d="M9.14018 400.869C8.11287 399.997 8.42684 397.94 9.36332 396.837C10.3006 395.732 11.892 395.544 12.9193 396.416C13.9457 397.287 14.6733 399.443 13.7361 400.548C12.7996 401.651 10.1666 401.74 9.14018 400.869Z" fill="white"/>
<path fill-rule="evenodd" clip-rule="evenodd" d="M1.32134 410.081C0.294028 409.209 0.608004 407.153 1.54448 406.049C2.48177 404.945 4.07313 404.757 5.10045 405.628C6.12687 406.5 6.8545 408.656 5.91721 409.76C4.98073 410.864 2.34777 410.952 1.32134 410.081Z" fill="white"/>
<path fill-rule="evenodd" clip-rule="evenodd" d="M1.2685 394.188C0.241202 393.316 0.555192 391.259 1.49167 390.156C2.42896 389.052 4.02031 388.863 5.04761 389.735C6.07402 390.606 6.80162 392.763 5.86433 393.867C4.92785 394.97 2.29491 395.059 1.2685 394.188Z" fill="white"/>
<path fill-rule="evenodd" clip-rule="evenodd" d="M1.21649 378.294C0.190051 377.422 0.502307 375.366 1.4396 374.262C2.37608 373.158 3.96916 372.97 4.9956 373.841C6.02293 374.713 6.74977 376.87 5.81329 377.973C4.876 379.078 2.24382 379.165 1.21649 378.294Z" fill="white"/>
</g>
<path fill-rule="evenodd" clip-rule="evenodd" d="M84.0164 30.5307C87.9231 78.2142 143.872 73.1763 126.752 100.225C112.643 122.518 17.7659 226.092 -23.7304 180.558C-44.5649 157.697 -29.5302 136.775 -32.8366 108.69C-36.7358 75.5735 -92.2914 38.0746 -61.9988 15.0646C-30.1668 -9.11434 81.159 -4.34962 84.0164 30.5307Z" fill="#FFD049"/>
<path fill-rule="evenodd" clip-rule="evenodd" d="M173.454 233.25C163.219 124.85 328.846 41.7471 393.294 88.1408C468.105 141.996 397.261 239.141 352.489 257.179C310.538 274.081 349.519 301.991 316.638 353.427C288.069 398.117 178.832 290.214 173.454 233.25Z" fill="#FFD049"/>
</svg>
