<svg width="936" height="1041" viewBox="0 0 936 1041" fill="none" xmlns="http://www.w3.org/2000/svg">
<path fill-rule="evenodd" clip-rule="evenodd" d="M878.69 830.959C937.359 925.624 775.197 1037.55 628.346 989.616C562.027 967.966 483.079 874.12 518.622 805.919C549.449 746.763 662.051 805.961 716.013 765.265C888.983 634.838 843.207 773.699 878.69 830.959Z" fill="#79CFCD"/>
<path fill-rule="evenodd" clip-rule="evenodd" d="M50.3732 868.024C22.692 998.008 -122.106 990.851 -173.145 974.482C-220.483 959.299 -126.464 863.889 -181.378 775.013C-226.403 702.155 -137.516 630.03 -58.4989 595.068C38.475 552.153 162.71 571.829 205.522 667.413C250.498 767.852 73.1246 761.26 50.3732 868.024Z" fill="#FFD049"/>
<path fill-rule="evenodd" clip-rule="evenodd" d="M-158.143 387.402C-198.141 313.564 -191.741 231.967 -149.157 172.506C-122.385 135.118 -5.91932 57.063 93.3653 82.0158C231.866 116.835 201.76 230.06 114.476 276.629C-5.69721 340.746 159.38 370.219 132.11 482.382C110.474 571.304 59.7548 469.785 -26.5672 490.474C-90.0805 505.704 -127.061 444.795 -158.143 387.402Z" fill="#DD234B"/>
</svg>
