<svg width="375" height="444" viewBox="0 0 375 444" fill="none" xmlns="http://www.w3.org/2000/svg">
<path fill-rule="evenodd" clip-rule="evenodd" d="M415.236 295.553C462.583 342.185 396.179 444 310.282 444C271.49 444 213.564 401.961 220.583 352.678C226.671 309.931 296.407 323.789 317.909 287.778C386.834 172.362 386.599 267.345 415.236 295.553Z" fill="#79CFCD"/>
<path fill-rule="evenodd" clip-rule="evenodd" d="M-73.6771 84.3269C-80.9591 26.5636 36.8789 -17.7196 82.731 7.00236C135.956 35.7002 85.5533 87.4664 53.6997 97.078C23.8532 106.084 51.5868 120.957 28.1929 148.366C7.86749 172.18 -69.8504 114.682 -73.6771 84.3269Z" fill="#F4486D"/>
<path fill-rule="evenodd" clip-rule="evenodd" d="M10.0344 225.23C14.1323 282.169 54.8706 275.255 43.071 307.862C33.3457 334.737 -33.2584 460.064 -64.7591 406.293C-80.5749 379.296 -70.1381 354.047 -73.2862 320.526C-76.9985 281 -118.56 237.059 -97.0316 209.07C-74.4096 179.658 7.03698 183.579 10.0344 225.23Z" fill="#FFD049"/>
</svg>
