<svg width="780" height="1080" viewBox="0 0 780 1080" fill="none" xmlns="http://www.w3.org/2000/svg">
<mask id="mask0" mask-type="alpha" maskUnits="userSpaceOnUse" x="0" y="0" width="780" height="1080">
<rect width="780" height="1080" fill="#F9F9F9"/>
</mask>
<g mask="url(#mask0)">
<path fill-rule="evenodd" clip-rule="evenodd" d="M809.951 487.602C896.355 488.084 900.302 834.656 806.855 1009.47C764.653 1088.41 670.179 1119 640.937 1002.37C615.572 901.212 701.807 788.068 698.253 669.529C686.871 289.581 757.69 487.304 809.951 487.602Z" fill="#79CFCD"/>
<path fill-rule="evenodd" clip-rule="evenodd" d="M43.9989 849.636C47.4443 920.939 86.9147 911.425 75.2035 952.551C65.5512 986.447 -0.0182333 1144.96 -30 1078.2C-45.0533 1044.68 -34.7275 1012.8 -37.4674 970.843C-40.6985 921.364 -80.5016 867.136 -59.422 831.597C-37.2712 794.253 41.4787 797.479 43.9989 849.636Z" fill="#FFD049"/>
<path fill-rule="evenodd" clip-rule="evenodd" d="M-121.508 438.422C-132.593 233.311 46.7823 76.0673 116.579 163.852C197.6 265.754 120.876 449.57 72.3873 483.7C26.9543 515.681 69.1711 568.491 33.5603 665.817C2.62049 750.378 -115.683 546.208 -121.508 438.422Z" fill="#F4486D"/>
</g>
</svg>
