<svg width="232" height="1134" viewBox="0 0 232 1134" fill="none" xmlns="http://www.w3.org/2000/svg">
<path fill-rule="evenodd" clip-rule="evenodd" d="M-124.381 252.981C-138.338 79.6908 87.5179 -53.1587 175.401 21.0071C277.416 107.101 180.81 262.399 119.758 291.234C62.552 318.253 115.708 362.871 70.8697 445.098C31.9127 516.54 -117.047 344.045 -124.381 252.981Z" fill="#F4486D"/>
<path fill-rule="evenodd" clip-rule="evenodd" d="M120.531 616.304C131.261 764.91 257.865 744.379 220.13 830.333C189.029 901.176 -21.9237 1232.82 -117.763 1094.15C-165.882 1024.53 -132.63 957.892 -141.229 870.451C-151.37 767.344 -278.756 654.977 -211.007 580.509C-139.814 502.257 112.682 507.599 120.531 616.304Z" fill="#FFD049"/>
</svg>
