<svg width="376" height="945" viewBox="0 0 376 945" fill="none" xmlns="http://www.w3.org/2000/svg">
<path fill-rule="evenodd" clip-rule="evenodd" d="M43.9989 714.636C47.4443 785.939 86.9147 776.425 75.2035 817.551C65.5512 851.447 -0.0182333 1009.96 -30 943.196C-45.0533 909.677 -34.7275 877.804 -37.4674 835.843C-40.6985 786.364 -80.5016 732.136 -59.422 696.597C-37.2712 659.253 41.4787 662.479 43.9989 714.636Z" fill="#FFD049"/>
<path fill-rule="evenodd" clip-rule="evenodd" d="M-121.508 303.422C-132.593 98.3114 46.7823 -58.9327 116.579 28.8518C197.6 130.754 120.876 314.57 72.3873 348.7C26.9543 380.681 69.1711 433.491 33.5603 530.817C2.62049 615.378 -115.683 411.208 -121.508 303.422Z" fill="#F4486D"/>
</svg>
